<?xml version="1.0" standalone="no"?>
<!DOCTYPE svg PUBLIC "-//W3C//DTD SVG 20010904//EN"
 "http://www.w3.org/TR/2001/REC-SVG-20010904/DTD/svg10.dtd">
<svg version="1.0" xmlns="http://www.w3.org/2000/svg"
 width="148.000000pt" height="148.000000pt" viewBox="0 0 148.000000 148.000000"
 preserveAspectRatio="xMidYMid meet">
<metadata>
Created by potrace 1.14, written by Peter Selinger 2001-2017
</metadata>
<g transform="translate(0.000000,148.000000) scale(0.100000,-0.100000)"
fill="#000000" stroke="none">
<path d="M70 1465 c0 -13 79 -15 672 -13 526 2 672 6 676 16 3 9 -136 12 -672
12 -596 0 -676 -2 -676 -15z"/>
<path d="M100 1400 c11 -20 21 -20 640 -20 619 0 629 0 640 20 11 20 8 20
-640 20 -648 0 -651 0 -640 -20z"/>
<path d="M140 675 l0 -675 600 0 600 0 0 675 0 675 -600 0 -600 0 0 -675z
m580 0 l0 -635 -265 0 -265 0 0 635 0 635 265 0 265 0 0 -635z m570 0 l0 -635
-265 0 -265 0 0 635 0 635 265 0 265 0 0 -635z"/>
<path d="M233 1268 c3 -7 103 -263 222 -568 119 -305 221 -562 226 -570 5 -9
9 229 9 568 l0 582 -231 0 c-181 0 -230 -3 -226 -12z"/>
<path d="M212 654 l3 -589 224 -3 c124 -1 228 1 231 5 7 8 -437 1154 -453
1169 -4 4 -6 -258 -5 -582z"/>
<path d="M790 880 l0 -400 165 0 c140 0 165 -2 165 -15 0 -13 -25 -15 -165
-15 l-165 0 0 -195 0 -195 238 2 237 3 3 608 2 607 -240 0 -240 0 0 -400z"/>
</g>
</svg>
